<?xml version="1.0" encoding="utf-8"?>
<!-- Generator: Adobe Illustrator 24.1.2, SVG Export Plug-In . SVG Version: 6.00 Build 0)  -->
<svg version="1.1" xmlns="http://www.w3.org/2000/svg" xmlns:xlink="http://www.w3.org/1999/xlink" x="0px" y="0px"
	 viewBox="0 0 113 50.5" style="enable-background:new 0 0 113 50.5;" xml:space="preserve">
<style type="text/css">
	.st0{display:none;}
	.st1{display:inline;}
	.st2{clip-path:url(#SVGID_2_);}
	.st3{fill:#008C80;}
	.st4{fill:#EBB01F;}
	.st5{fill:#787A7C;}
	.st6{fill:#747678;}
	.st7{fill:#007E7A;}
	.st8{fill:#EDB111;}
</style>
<g id="Camada_1" class="st0">
	<g transform="translate(0 0.995)" class="st1">
		<g transform="translate(0 19.467)">
			<g>
				<defs>
					<rect id="SVGID_1_" y="0" width="40.7" height="29.9"/>
				</defs>
				<clipPath id="SVGID_2_">
					<use xlink:href="#SVGID_1_"  style="overflow:visible;"/>
				</clipPath>
				<g transform="translate(0 0)" class="st2">
					<path class="st3" d="M0,13.3l22,16.2c0.8,0.5,1.8,0.5,2.6,0l16.1-12.8L18.1,0L0,13.3z"/>
				</g>
			</g>
		</g>
		<path class="st4" d="M25.6,14v32.8c0,0.9-0.4,1.7-1.1,2.3l18.7-13.8c0.8-0.6,1.2-1.5,1.2-2.5V0L25.6,14z"/>
		<g transform="translate(55.341 12.052)">
			<g transform="translate(0 0)">
				<path class="st5" d="M30,0.2h2.1v12.2c-0.7,0-1.5,0-2.3,0c-0.1,0-0.3-0.2-0.4-0.3c-1.1-1.9-2.3-3.8-3.4-5.7
					c-0.5-0.9-1-1.9-1.6-2.9v9h-2.1V0.2c0.8,0,1.7,0,2.5,0c0.1,0,0.2,0.2,0.3,0.3c1.5,2.7,3.1,5.3,4.6,8c0,0.1,0.1,0.1,0.1,0.1
					L30,0.2z"/>
				<path class="st5" d="M34.6,0.3c1.4-0.1,2.7-0.2,4-0.2C40.5,0,42.4,0.7,43.7,2c0.7,0.7,1.1,1.7,1.2,2.7c0.2,1.6,0,3.2-0.6,4.6
					c-0.8,1.5-2.2,2.6-3.9,2.9c-1.8,0.5-3.6,0.2-5.4,0.2c-0.2-0.1-0.4-0.3-0.5-0.5C34.5,8.1,34.6,4.3,34.6,0.3z M37,10.6
					c3,0.3,4.4-0.6,5.1-2.1c0.9-1.6,0.8-3.5-0.2-5c-1.2-1.6-3-1.8-4.9-1.4V10.6z"/>
				<path class="st5" d="M57.7,6.2C57.8,8,57.2,9.7,56,11c-2.1,2-5.4,2.3-7.7,0.5c-1.2-1-2-2.5-2.1-4.1c-0.2-1.4,0-2.8,0.6-4.1
					c0.8-1.8,2.5-3.1,4.4-3.2c1.1-0.1,2.2,0,3.2,0.4c1.6,0.7,2.8,2.2,3.1,3.9C57.6,5,57.6,5.6,57.7,6.2z M51.5,1.9
					C50.7,2,50.1,2.4,49.7,3c-1.3,1.8-1.5,4.3-0.3,6.2c0.7,1.4,2.5,1.9,3.9,1.2c0.4-0.2,0.8-0.5,1-0.9c1.3-1.8,1.3-4.3,0.1-6.1
					C53.8,2.3,52.6,1.7,51.5,1.9L51.5,1.9z"/>
				<path class="st5" d="M10.2,0.2h2.4v0.7c0,2.3,0,4.6,0,6.9c-0.1,1,0.3,2,1.2,2.6c1.1,0.7,2.5,0.3,3.2-0.8
					c0.2-0.4,0.4-0.8,0.4-1.3c0.1-2.5,0.1-4.9,0.1-7.4V0.2h2.3v0.7c0,2.3,0,4.7,0,7c-0.1,2.9-1.8,4.7-4.7,4.7
					c-1.4,0.2-2.8-0.4-3.7-1.4c-0.5-0.6-0.9-1.4-1-2.2C10.3,6.1,10.3,3.2,10.2,0.2z"/>
				<path class="st5" d="M13.5,27.3c-0.3,1-0.5,1.9-0.9,2.9c-0.1,0.2-0.3,0.4-0.5,0.4c-0.7,0.1-1.3,0-2.1,0c0.4-1.4,0.9-2.7,1.3-4
					c0.8-2.5,1.6-5.1,2.4-7.6c0.1-0.4,0.3-0.6,0.7-0.5c0.7,0,1.3,0,2,0c0.2,0,0.4,0.1,0.5,0.3c1.3,3.9,2.5,7.8,3.8,11.7
					c0,0.1,0,0.1,0,0.2c-0.7,0-1.4,0-2.1,0c-0.2,0-0.4-0.2-0.5-0.4c-0.3-0.8-0.5-1.6-0.8-2.5c-0.1-0.2-0.3-0.4-0.5-0.4
					C15.8,27.3,14.7,27.3,13.5,27.3z M15.4,20.8c-0.5,1.6-0.9,3.1-1.4,4.7h2.8C16.3,23.9,15.9,22.3,15.4,20.8L15.4,20.8z"/>
				<path class="st5" d="M33.8,25.4v3.4h5v1.8h-7.3V18.5h7.1v1.9h-4.7v2.9h4.4v2L33.8,25.4z"/>
				<path class="st5" d="M2.6,18.5c0.9,3.1,1.8,6.3,2.8,9.5c0.3-0.9,0.5-1.9,0.8-2.8c0.6-2.1,1.3-4.1,2-6.2c0-0.3,0.4-0.6,0.7-0.5
					c0,0,0,0,0,0c0.6,0,1.3,0,2,0L6.6,30.7c-0.8,0-1.6,0-2.4,0c-0.2,0-0.4-0.2-0.4-0.3c-1.1-3.3-2.1-6.7-3.2-10
					c-0.2-0.6-0.4-1.2-0.6-1.8L2.6,18.5z"/>
				<path class="st5" d="M1.2,0.2h7.1v1.9H3.6v3.2H8v2H3.6v5H1.2V0.2z"/>
				<path class="st5" d="M29.7,28.8v1.8h-7.2V18.5h2.3v10.3H29.7z"/>
			</g>
		</g>
	</g>
</g>
<g id="Camada_2">
	<g>
		<g>
			<path class="st6" d="M59.4,22.1h-2.4V10.6h7.4v2h-5v3.1h4.5v2h-4.5V22.1z"/>
			<path class="st6" d="M68.6,21.6c-0.7-0.4-1.3-1-1.7-1.9c-0.4-0.8-0.6-1.8-0.6-2.9v-6.1h2.4v6.3c0,1,0.2,1.8,0.6,2.3
				c0.4,0.5,1,0.8,1.7,0.8c0.8,0,1.4-0.3,1.8-0.8c0.4-0.5,0.6-1.3,0.6-2.3v-6.3h2.4v6.1c0,1.2-0.2,2.1-0.6,3c-0.4,0.8-1,1.4-1.7,1.8
				C72.9,22,72,22.2,71,22.2C70.1,22.2,69.3,22,68.6,21.6z"/>
			<path class="st6" d="M80.5,22.1h-2.3V10.6h1.7l5.5,7.4v-7.4h2.4v11.4h-1.7l-5.5-7.3V22.1z"/>
			<path class="st6" d="M90.1,22.1V10.6h3.6c1.1,0,2.1,0.2,3,0.7c0.9,0.5,1.6,1.1,2.1,2s0.8,1.9,0.8,3c0,1.1-0.3,2.1-0.8,2.9
				s-1.2,1.5-2.1,2c-0.9,0.5-1.9,0.7-3,0.7H90.1z M93.8,20.1c0.7,0,1.2-0.2,1.8-0.5c0.5-0.3,0.9-0.7,1.2-1.3c0.3-0.6,0.4-1.2,0.4-2
				c0-0.8-0.1-1.4-0.4-2c-0.3-0.6-0.7-1-1.2-1.3c-0.5-0.3-1.1-0.4-1.8-0.4h-1.3v7.5H93.8z"/>
			<path class="st6" d="M103.6,21.5c-0.8-0.5-1.5-1.1-1.9-2c-0.5-0.9-0.7-1.9-0.7-3.1c0-1.2,0.2-2.2,0.7-3.1c0.5-0.9,1.1-1.6,1.9-2
				c0.8-0.5,1.7-0.7,2.7-0.7c1,0,1.9,0.2,2.7,0.7c0.8,0.5,1.5,1.1,1.9,2c0.5,0.9,0.7,1.9,0.7,3.2c0,1.2-0.2,2.2-0.7,3.1
				c-0.5,0.9-1.1,1.6-2,2c-0.8,0.5-1.7,0.7-2.7,0.7C105.4,22.2,104.5,22,103.6,21.5z M107.9,19.6c0.4-0.3,0.8-0.7,1.1-1.2
				c0.3-0.6,0.4-1.2,0.4-2.1c0-0.8-0.1-1.5-0.4-2c-0.3-0.6-0.6-1-1.1-1.3c-0.4-0.3-0.9-0.4-1.5-0.4c-0.5,0-1,0.1-1.5,0.4
				c-0.4,0.3-0.8,0.7-1.1,1.2c-0.3,0.6-0.4,1.2-0.4,2c0,0.8,0.1,1.5,0.4,2.1c0.3,0.6,0.6,1,1.1,1.2c0.4,0.3,0.9,0.4,1.5,0.4
				C106.9,20.1,107.4,19.9,107.9,19.6z"/>
			<path class="st6" d="M60.6,38.3l-4.4-11.4h2.5l3,8.3c1.3-3.4,2.2-6.1,2.7-8.3h2.4c-0.4,1.6-1,3.3-1.7,5.2
				c-0.7,1.9-1.6,3.9-2.5,6.2H60.6z"/>
			<path class="st6" d="M68.6,38.3h-2.4l4.4-11.4h2.1L77,38.3h-2.5l-0.8-2.2h-4.4L68.6,38.3z M71.5,29.9L70,34.2h3L71.5,29.9z"/>
			<path class="st6" d="M85.8,38.3h-7.2V26.9h2.4v9.2h4.9V38.3z"/>
			<path class="st6" d="M95.3,38.3h-7.7V26.9h7.7v2h-5.4v2.7h4.9v2h-4.9v2.7h5.4V38.3z"/>
		</g>
		<path class="st7" d="M1.2,34.1L22,49.4c1,0.6,1.9,0.5,2.7,0l16.7-13.3L20.1,20.3L1.2,34.1z"/>
		<path class="st8" d="M25.9,15.3v31.4V47c0,0.9-0.4,1.8-1.1,2.4l19.5-14.4c0.8-0.6,1.2-1.5,1.3-2.6V0.7L25.9,15.3z"/>
	</g>
</g>
</svg>
